<?xml version="1.0" encoding="iso-8859-1"?>
<!-- Generator: Adobe Illustrator 17.1.0, SVG Export Plug-In . SVG Version: 6.00 Build 0)  -->
<!DOCTYPE svg PUBLIC "-//W3C//DTD SVG 1.1//EN" "http://www.w3.org/Graphics/SVG/1.1/DTD/svg11.dtd">
<svg version="1.1" id="Layer_1" xmlns="http://www.w3.org/2000/svg" xmlns:xlink="http://www.w3.org/1999/xlink" x="0px" y="0px"
	 viewBox="0 0 800 800" style="enable-background:new 0 0 800 800;" xml:space="preserve">
<path d="M711.087,210.166l-23.917,24.276c57.722,68.075,89.523,158.777,79.789,256.79
	C750.86,653.327,619.521,783.607,457.312,798.511C265.564,816.13,102.058,675.151,83.091,491.911H49.298
	c-20.545,0-33.386-22.242-23.112-40.034l75.579-130.877c10.273-17.79,35.952-17.789,46.223,0.002l75.564,130.878
	c10.273,17.792-2.568,40.032-23.112,40.032h-29.419C190.134,628.72,317.5,731.326,463.533,709.923
	c108.062-15.838,195.715-101.095,214.083-208.755c27.491-161.139-96.508-301.383-252.642-301.383
	c-50.632,0-99.501,14.689-141.481,42.509c-19.482,12.91-46.489,10.356-60.782-8.136c-15.563-20.132-10.704-48.874,10.048-62.888
	c45.039-30.426,96.098-49.441,149.593-56.06V65.6H347.34c-12.047,0-21.812-9.765-21.812-21.811V21.812
	C325.528,9.766,335.294,0,347.34,0h162.366c12.046,0,21.811,9.766,21.811,21.812v21.977c0,12.046-9.765,21.811-21.811,21.811
	h-38.564v50.128c68.672,9.265,130.93,38.928,180.578,82.596l22.189-22.522l-16.261-15.031c-8.846-8.176-9.389-21.976-1.212-30.822
	l17.398-18.823c8.177-8.847,21.976-9.389,30.823-1.213l65.767,60.791c8.847,8.176,9.389,21.976,1.213,30.822l-17.398,18.823
	c-8.176,8.846-21.976,9.389-30.822,1.213L711.087,210.166z M472.686,410.772c-30.175-30.811-82.074-27.463-107.516,10.549
	c-15.273,22.817-15.04,53.656,0.39,76.366c18.75,27.597,51.761,36.598,79.92,27.049l87.669,71.41
	c16.761,13.652,38.976-8.364,25.477-25.246l-70.391-88.034C497.024,458.619,491.939,430.432,472.686,410.772z"/>
</svg>
