<?xml version="1.0" encoding="utf-8"?>
<!-- Generator: Adobe Illustrator 18.0.0, SVG Export Plug-In . SVG Version: 6.00 Build 0)  -->
<!DOCTYPE svg PUBLIC "-//W3C//DTD SVG 1.1//EN" "http://www.w3.org/Graphics/SVG/1.1/DTD/svg11.dtd">
<svg version="1.1" id="Capa_1" xmlns:sketch="http://www.bohemiancoding.com/sketch/ns"
	 xmlns="http://www.w3.org/2000/svg" xmlns:xlink="http://www.w3.org/1999/xlink" x="0px" y="0px" viewBox="0 0 32 32"
	 enable-background="new 0 0 32 32" xml:space="preserve">
<title>icon 68 document time</title>
<desc>Created with Sketch.</desc>
<g>
	<path d="M20,3h-0.5H9C7.9,3,7,3.9,7,5v23c0,1.1,0.9,2,2,2h15c1.1,0,2-0.9,2-2V10.5V10L20,3z M20,4.5l4.7,5.5H21c-0.5,0-1-0.5-1-1
		V4.5z M25,28c0,0.5-0.4,1-1,1H9c-0.5,0-1-0.4-1-1V5c0-0.5,0.4-1,1-1h10v5c0,1.1,0.9,2,2,2h4V28z"/>
	<path d="M16.5,16c-3,0-5.5,2.5-5.5,5.5c0,3,2.5,5.5,5.5,5.5c3,0,5.5-2.5,5.5-5.5C22,18.5,19.5,16,16.5,16z M16.5,26
		C14,26,12,24,12,21.5c0-2.3,1.8-4.2,4-4.5v5h1h4C20.7,24.2,18.8,26,16.5,26z M17,21v-4c2.1,0.2,3.7,1.9,4,4H17z"/>
</g>
</svg>
