<?xml version="1.0" encoding="utf-8"?>
<!-- Generator: Adobe Illustrator 18.0.0, SVG Export Plug-In . SVG Version: 6.00 Build 0)  -->
<!DOCTYPE svg PUBLIC "-//W3C//DTD SVG 1.1//EN" "http://www.w3.org/Graphics/SVG/1.1/DTD/svg11.dtd">
<svg version="1.1" id="Capa_1" xmlns:sketch="http://www.bohemiancoding.com/sketch/ns"
	 xmlns="http://www.w3.org/2000/svg" xmlns:xlink="http://www.w3.org/1999/xlink" x="0px" y="0px" viewBox="0 0 32 32"
	 enable-background="new 0 0 32 32" xml:space="preserve">
<title>icon 82 document remove</title>
<desc>Created with Sketch.</desc>
<g>
	<path d="M24,20.6V9.5V9l-6-7h-0.5H7C5.9,2,5,2.9,5,4v23c0,1.1,0.9,2,2,2h10.3c1,1.2,2.5,2,4.2,2c3,0,5.5-2.5,5.5-5.5
		C27,23.4,25.8,21.5,24,20.6z M18,3.5L22.7,9H19c-0.5,0-1-0.5-1-1V3.5z M7,28c-0.5,0-1-0.4-1-1V4c0-0.5,0.4-1,1-1h10v5
		c0,1.1,0.9,2,2,2h4v10.2c-0.5-0.1-1-0.2-1.5-0.2c-3,0-5.5,2.5-5.5,5.5c0,0.9,0.2,1.7,0.6,2.5H7z M21.5,30C19,30,17,28,17,25.5
		s2-4.5,4.5-4.5s4.5,2,4.5,4.5S24,30,21.5,30z"/>
	<rect x="18" y="25" width="7" height="1"/>
</g>
</svg>
