<?xml version="1.0" encoding="utf-8"?>
<!-- Generator: Adobe Illustrator 18.0.0, SVG Export Plug-In . SVG Version: 6.00 Build 0)  -->
<!DOCTYPE svg PUBLIC "-//W3C//DTD SVG 1.1//EN" "http://www.w3.org/Graphics/SVG/1.1/DTD/svg11.dtd">
<svg version="1.1" id="Capa_1" xmlns:sketch="http://www.bohemiancoding.com/sketch/ns"
	 xmlns="http://www.w3.org/2000/svg" xmlns:xlink="http://www.w3.org/1999/xlink" x="0px" y="0px" viewBox="0 0 32 32"
	 enable-background="new 0 0 32 32" xml:space="preserve">
<title>icon 78 document error</title>
<desc>Created with Sketch.</desc>
<g>
	<rect x="20" y="28" width="1" height="1"/>
	<rect x="20" y="24" width="1" height="3"/>
	<path d="M27,31l-3-5.1V9l-6-7H7C5.9,2,5,2.9,5,4v23c0,1.1,0.9,2,2,2h8.2L14,31H27z M25.2,30h-9.5l4.8-8L25.2,30z M18,3.5L22.7,9H19
		c-0.5,0-1-0.5-1-1V3.5z M7,28c-0.5,0-1-0.4-1-1V4c0-0.5,0.4-1,1-1h10v5c0,1.1,0.9,2,2,2h4v14.2L20.5,20l-4.7,8H7z"/>
</g>
</svg>
