<?xml version="1.0" encoding="utf-8"?>
<!-- Generator: Adobe Illustrator 18.0.0, SVG Export Plug-In . SVG Version: 6.00 Build 0)  -->
<!DOCTYPE svg PUBLIC "-//W3C//DTD SVG 1.1//EN" "http://www.w3.org/Graphics/SVG/1.1/DTD/svg11.dtd">
<svg version="1.1" id="Capa_1" xmlns:sketch="http://www.bohemiancoding.com/sketch/ns"
	 xmlns="http://www.w3.org/2000/svg" xmlns:xlink="http://www.w3.org/1999/xlink" x="0px" y="0px" viewBox="0 0 32 32"
	 enable-background="new 0 0 32 32" xml:space="preserve">
<title>icon 136 document edit</title>
<desc>Created with Sketch.</desc>
<path d="M29.6,7.6l-1.2-1.2c-0.8-0.8-2-0.8-2.8,0L22,10l-6-7H5C3.9,3,3,3.9,3,5v23c0,1.1,0.9,2,2,2h15c1.1,0,2-0.9,2-2V18l7.6-7.6
	C30.4,9.6,30.4,8.4,29.6,7.6z M16,4.5l4.7,5.5H17c-0.5,0-1-0.5-1-1V4.5z M21,28c0,0.5-0.4,1-1,1H5c-0.5,0-1-0.4-1-1V5
	c0-0.5,0.4-1,1-1h10v5c0,1.1,0.9,2,2,2h4L11,21l-1,5l5-1l6-6V28z M11.9,21.6l2.5,2.5l-3.1,0.6L11.9,21.6z M15.2,23.4l-2.6-2.6
	L23.8,9.6l2.6,2.6L15.2,23.4z M28.9,9.7l-1.7,1.7l-2.6-2.6l1.7-1.7c0.4-0.4,1-0.4,1.4,0l1.2,1.2C29.3,8.7,29.3,9.3,28.9,9.7z"/>
</svg>
