<?xml version="1.0" encoding="utf-8"?>
<!-- Generator: Adobe Illustrator 16.0.0, SVG Export Plug-In . SVG Version: 6.00 Build 0)  -->
<!DOCTYPE svg PUBLIC "-//W3C//DTD SVG 1.1//EN" "http://www.w3.org/Graphics/SVG/1.1/DTD/svg11.dtd">
<svg version="1.1" id="Layer_1" xmlns="http://www.w3.org/2000/svg" xmlns:xlink="http://www.w3.org/1999/xlink" x="0px" y="0px"
	 width="512px" height="512px" viewBox="0 0 512 512" enable-background="new 0 0 512 512" xml:space="preserve">
<g>
	<path d="M321.844,228.531c0.018-1.295-0.594-2.52-1.639-3.283L172.9,117.545c-1.377-1.005-3.236-1.029-4.635-0.062l-66.141,45.693
		c-1.08,0.747-1.727,1.978-1.727,3.291s0.646,2.544,1.727,3.291l151.602,104.733c0.684,0.473,1.479,0.709,2.273,0.709
		s1.59-0.236,2.273-0.709l61.844-42.725C321.184,231.031,321.826,229.826,321.844,228.531z"/>
	<path d="M418.859,186.529c-1.316-0.689-2.908-0.594-4.133,0.251L266.107,289.457c-1.08,0.746-1.727,1.977-1.727,3.291V450.27
		c0,1.486,0.826,2.852,2.143,3.541c0.584,0.307,1.221,0.459,1.857,0.459c0.799,0,1.594-0.24,2.273-0.709l148.619-102.676
		c1.082-0.748,1.727-1.979,1.727-3.291V190.071C421,188.584,420.176,187.22,418.859,186.529z"/>
	<path d="M245.893,289.457L97.273,186.78c-1.223-0.845-2.813-0.941-4.131-0.251c-1.316,0.69-2.143,2.055-2.143,3.542v157.522
		c0,1.313,0.646,2.543,1.727,3.291l148.619,102.676c0.682,0.469,1.477,0.709,2.273,0.709c0.637,0,1.275-0.152,1.859-0.459
		c1.316-0.689,2.141-2.055,2.141-3.541V292.748C247.619,291.434,246.975,290.203,245.893,289.457z"/>
	<path d="M191.727,107.734l147.307,107.703c0.703,0.514,1.531,0.771,2.361,0.771c0.793,0,1.588-0.236,2.273-0.709l66.207-45.742
		c1.082-0.747,1.727-1.977,1.727-3.291s-0.645-2.544-1.727-3.291L258.273,58.439c-1.367-0.945-3.18-0.945-4.547,0l-61.912,42.775
		c-1.066,0.736-1.709,1.942-1.727,3.237S190.682,106.971,191.727,107.734z"/>
</g>
</svg>
