<?xml version="1.0" encoding="utf-8"?>
<!-- Generator: Adobe Illustrator 16.0.0, SVG Export Plug-In . SVG Version: 6.00 Build 0)  -->
<!DOCTYPE svg PUBLIC "-//W3C//DTD SVG 1.1//EN" "http://www.w3.org/Graphics/SVG/1.1/DTD/svg11.dtd">
<svg version="1.1" id="Layer_1" xmlns="http://www.w3.org/2000/svg" xmlns:xlink="http://www.w3.org/1999/xlink" x="0px" y="0px"
	 width="50px" height="50px" viewBox="0 0 50 50" enable-background="new 0 0 50 50" xml:space="preserve">
<path d="M30.075,13.341c-4.613-4.614-12.121-4.614-16.734,0c-4.612,4.614-4.612,12.121,0,16.735
	c4.108,4.107,10.506,4.547,15.116,1.34c0.097,0.459,0.32,0.897,0.676,1.254l6.718,6.717c0.978,0.977,2.56,0.977,3.535,0
	c0.978-0.977,0.978-2.559,0-3.535l-6.718-6.719c-0.355-0.355-0.794-0.578-1.253-0.674C34.624,23.847,34.184,17.451,30.075,13.341z
	 M27.954,27.955c-3.444,3.444-9.048,3.444-12.492,0c-3.442-3.444-3.442-9.048,0-12.492c3.444-3.444,9.048-3.444,12.492,0
	S31.398,24.511,27.954,27.955z"/>
</svg>
