<?xml version="1.0" encoding="utf-8"?>
<!-- Generator: Adobe Illustrator 18.0.0, SVG Export Plug-In . SVG Version: 6.00 Build 0)  -->
<!DOCTYPE svg PUBLIC "-//W3C//DTD SVG 1.1//EN" "http://www.w3.org/Graphics/SVG/1.1/DTD/svg11.dtd">
<svg version="1.1" id="Capa_1" xmlns:sketch="http://www.bohemiancoding.com/sketch/ns"
	 xmlns="http://www.w3.org/2000/svg" xmlns:xlink="http://www.w3.org/1999/xlink" x="0px" y="0px" viewBox="0 0 32 32"
	 enable-background="new 0 0 32 32" xml:space="preserve">
<title>icon 76 document unlocked</title>
<desc>Created with Sketch.</desc>
<path d="M26,24h-1.5H20v-2.5c0-1.4,1.1-2.5,2.5-2.5c1.4,0,2.5,1.1,2.5,2.5V22h1v-0.5c0-1.4-0.8-2.6-2-3.2V9l-6-7H7C5.9,2,5,2.9,5,4
	v23c0,1.1,0.9,2,2,2h11v1c0,0.6,0.4,1,1,1h7c0.6,0,1-0.4,1-1v-4v-1C27,24.4,26.6,24,26,24z M18,3.5L22.7,9H19c-0.5,0-1-0.5-1-1V3.5z
	 M18,25v3H7c-0.5,0-1-0.4-1-1V4c0-0.5,0.4-1,1-1h10v5c0,1.1,0.9,2,2,2h4v8c-0.2,0-0.3,0-0.5,0c-1.9,0-3.5,1.6-3.5,3.5V24
	C18.4,24,18,24.4,18,25z M26,29.5c0,0.3-0.2,0.5-0.5,0.5h-6c-0.3,0-0.5-0.2-0.5-0.5v-4c0-0.3,0.2-0.5,0.5-0.5h6
	c0.3,0,0.5,0.2,0.5,0.5V29.5z"/>
</svg>
